<?xml version="1.0" encoding="UTF-8"?><svg id="Layer_1" xmlns="http://www.w3.org/2000/svg" viewBox="0 0 100 100"><defs><style>.cls-1{fill:#ffe48d;}.cls-2{fill:#ffe164;}.cls-3{fill:#ffeea4;}.cls-4{fill:#ffce33;}.cls-5{fill:#ef3e26;}.cls-6{fill:#dd9b0a;}.cls-7{fill:#a87000;}</style></defs><polygon class="cls-5" points="50.41 50 50.41 50 50.41 50 50.41 50"/><polygon class="cls-5" points="50.41 50 50.41 50 50.41 50 50.41 50"/><g><path class="cls-7" d="M50,0C22.43,0,0,22.43,0,50s22.43,50,50,50,50-22.43,50-50S77.57,0,50,0Z"/><path class="cls-6" d="M50,4.77C25.06,4.77,4.77,25.06,4.77,50s20.29,45.23,45.23,45.23,45.23-20.29,45.23-45.23S74.94,4.77,50,4.77Z"/><path class="cls-1" d="M53.62,19.74l7.39,14.98c.58,1.18,1.71,2,3.01,2.19l16.54,2.4c3.28,.48,4.59,4.51,2.22,6.83l-11.96,11.66c-.94,.92-1.37,2.24-1.15,3.54l2.82,16.47c.56,3.27-2.87,5.76-5.81,4.22l-14.79-7.78c-1.17-.61-2.56-.61-3.72,0l-14.79,7.78c-2.94,1.54-6.37-.95-5.81-4.22l2.82-16.47c.22-1.3-.21-2.62-1.15-3.54l-11.96-11.66c-2.37-2.32-1.06-6.35,2.22-6.83l16.54-2.4c1.3-.19,2.43-1.01,3.01-2.19l7.39-14.98c1.47-2.97,5.71-2.97,7.18,0Z"/><path class="cls-2" d="M53.32,22.24l6.78,13.74c.53,1.08,1.57,1.83,2.76,2.01l15.17,2.2c3.01,.44,4.21,4.14,2.03,6.26l-10.97,10.7c-.87,.84-1.26,2.06-1.06,3.25l2.59,15.1c.51,3-2.63,5.28-5.33,3.87l-13.57-7.13c-1.07-.56-2.35-.56-3.42,0l-13.57,7.13c-2.69,1.42-5.84-.87-5.33-3.87l2.59-15.1c.2-1.19-.19-2.41-1.06-3.25l-10.97-10.7c-2.18-2.12-.98-5.82,2.03-6.26l15.17-2.2c1.2-.17,2.23-.92,2.76-2.01l6.78-13.74c1.35-2.73,5.24-2.73,6.58,0Z"/><path class="cls-4" d="M80.07,46.46c2.18-2.12,.98-5.82-2.03-6.26l-15.17-2.2c-.58-.08-1.11-.3-1.57-.63-.2,.7-.41,1.4-.64,2.1-5.62,17.61-16.85,30.69-28.7,40.16,.87,.28,1.86,.24,2.79-.25l13.57-7.13c1.07-.56,2.35-.56,3.42,0l13.57,7.13c2.69,1.42,5.84-.87,5.33-3.87l-2.59-15.1c-.2-1.19,.19-2.41,1.06-3.25l10.97-10.7Z"/><circle class="cls-3" cx="40.49" cy="46.91" r="5.95"/></g></svg>